<svg width="244.000000pt" height="251.000000pt" viewBox="0 0 244.000000 251.000000" xmlns="http://www.w3.org/2000/svg">
  <g transform="translate(0.000000,251.000000) scale(0.100000,-0.100000)" fill="#ffffff" stroke="none">
    <path d="M0 1255 l0 -1255 1220 0 1220 0 0 1255 0 1255 -1220 0 -1220 0 0
-1255z m1286 1114 c83 -26 84 -26 84 -116 l0 -72 -10 -6 c-6 -4 -40 3 -75 15
l-65 22 -66 -22 -66 -22 -9 13 c-12 17 -5 147 8 160 6 6 37 19 69 29 33 10 60
19 60 19 1 1 33 -9 70 -20z m-178 -389 c18 -11 37 -32 42 -46 l10 -26 -2 -870
-3 -870 -33 -29 c-43 -38 -35 -40 -271 42 -113 39 -271 93 -351 121 -80 27
-149 54 -155 59 l-10 10 18 30 17 31 0 603 0 604 -17 36 c-9 19 -14 37 -12 40
3 3 142 58 310 124 167 65 327 128 354 139 63 26 63 26 103 2z m360 -12 l52
-19 0 -686 0 -686 17 -19 c21 -24 58 -23 83 2 l20 20 0 660 0 660 9 0 c5 0 46
-14 90 -31 l81 -31 0 -583 0 -584 22 -15 c30 -21 54 -20 78 4 l20 20 0 555 c0
305 4 555 8 555 11 0 170 -58 194 -71 l19 -10 -21 -33 -20 -33 0 -604 0 -604
19 -32 20 -32 -12 -9 c-7 -6 -180 -65 -386 -132 l-373 -122 -25 7 c-14 3 -36
18 -49 32 l-24 26 0 873 0 873 11 25 c7 14 26 32 43 40 l31 15 20 -6 c11 -3
44 -14 73 -25z" />
    <path d="M710 1024 l0 -506 28 6 c15 4 40 20 55 37 l28 30 -3 445 -3 446 -28
24 c-15 13 -39 24 -53 24 l-24 0 0 -506z" />
  </g>
  <g transform="translate(0.000000,251.000000) scale(0.100000,-0.100000)" fill="#000000" stroke="none">
    <path d="M1145 2379 c-75 -23 -82 -33 -84 -116 -2 -112 4 -117 102 -84 l56 20
64 -21 c35 -12 72 -18 81 -15 l16 6 0 83 c0 102 0 101 -84 127 -80 25 -74 25
-151 0z" />
    <path d="M690 1869 c-195 -77 -359 -144 -363 -148 l-9 -9 21 -40 21 -41 0
-595 0 -595 -21 -36 -22 -36 14 -14 c8 -7 79 -36 159 -63 80 -28 238 -82 351
-121 113 -39 217 -71 232 -71 l27 0 32 29 33 29 3 881 2 881 -15 30 c-16 31
-62 60 -92 59 -10 0 -178 -63 -373 -140z m87 -373 l28 -24 3 -435 3 -435 -26
-30 c-13 -16 -34 -32 -45 -35 l-20 -5 0 494 0 494 14 0 c8 0 28 -11 43 -24z" />
    <path d="M1334 1994 c-17 -8 -36 -26 -43 -40 l-11 -25 0 -882 0 -882 18 -21
c21 -27 54 -44 83 -44 32 0 762 240 778 256 l15 14 -22 39 -22 39 0 591 0 592
22 39 23 39 -11 11 c-14 14 -191 80 -215 80 l-19 0 0 -555 0 -555 -20 -20
c-24 -24 -29 -24 -58 -4 l-22 15 0 584 0 583 -81 31 c-44 17 -89 31 -100 31
l-19 0 0 -660 0 -660 -20 -20 c-25 -25 -42 -25 -63 -2 l-17 19 0 680 0 681
-14 11 c-14 12 -122 51 -140 51 -6 0 -25 -7 -42 -16z" />
  </g>
  <g transform="translate(0.000000,251.000000) scale(0.100000,-0.100000)" fill="#080808" stroke="none">
    <path d="M1200 2390 c0 -5 -7 -7 -15 -4 l-15 6 0 -11 0 -10 -17 6 -16 6 6 -10
c4 -6 4 -13 0 -16 -5 -2 -1 -2 7 1 8 2 26 7 39 10 l24 5 -7 -12 -7 -11 26 10
c33 13 38 13 29 -1 l-6 -11 22 12 23 12 6 -8 c8 -11 41 -14 41 -5 0 4 -16 13
-37 19 l-36 11 -18 -9 c-10 -6 -23 -10 -29 -10 l-12 0 6 15 c3 8 1 15 -4 15
-6 0 -10 -4 -10 -10z m77 -17 c-4 -3 -10 -3 -14 0 -3 4 0 7 7 7 7 0 10 -3 7
-7z" />
    <path d="M1078 2354 c-4 -5 0 -18 8 -29 15 -20 17 -12 5 19 -4 11 -10 15 -13
10z" />
    <path d="M1351 2313 c1 -53 6 -49 11 10 2 20 0 37 -4 37 -4 0 -8 -21 -7 -47z" />
    <path d="M1060 2314 l0 -15 10 6 c6 4 8 11 5 16 -9 14 -15 11 -15 -7z" />
    <path d="M1081 2284 l1 -19 5 13 c3 7 2 16 -1 19 -3 4 -6 -2 -5 -13z" />
    <path d="M1218 2263 c7 -3 16 -2 19 1 4 3 -2 6 -13 5 l-19 -1 13 -5z" />
    <path d="M1243 2243 c4 -3 10 -3 14 0 3 4 0 7 -7 7 -7 0 -10 -3 -7 -7z" />
    <path d="M1134 2228 l-7 -11 11 7 c12 7 16 16 8 16 -3 0 -8 -5 -12 -12z" />
    <path d="M1160 2210 c0 -7 3 -10 7 -7 3 4 3 10 0 14 -4 3 -7 0 -7 -7z" />
    <path d="M1186 2201 l-18 -20 19 5 c11 3 20 12 20 20 0 18 0 18 -21 -5z" />
    <path d="M1235 2209 c-8 -13 -6 -15 23 -23 l22 -7 0 10 c0 6 -3 10 -7 10 -5
-1 -15 -1 -23 0 l-15 1 15 10 15 10 -12 0 c-6 0 -15 -5 -18 -11z" />
    <path d="M1117 2189 c-9 -5 -23 -7 -30 -3 l-12 8 14 -17 c15 -19 36 -23 25 -5
l-7 11 15 -5 15 -6 0 14 c0 8 -1 14 -1 14 -1 0 -9 -5 -19 -11z" />
    <path d="M1290 2180 c0 -5 5 -10 11 -10 5 0 7 5 4 10 -3 6 -8 10 -11 10 -2 0
-4 -4 -4 -10z" />
    <path d="M1357 2173 c3 -7 9 -10 14 -7 14 8 11 21 -5 21 l-14 0 5 -14z" />
    <path d="M1000 1990 l-15 -10 12 0 c6 0 15 5 18 10 8 12 4 12 -15 0z" />
    <path d="M1085 1992 c3 -3 0 -11 -5 -17 l-10 -12 34 3 34 4 6 -22 7 -23 6 13
c6 15 -26 54 -38 46 -5 -3 -9 -1 -9 4 0 5 -7 9 -15 9 -8 0 -13 -3 -10 -5z" />
    <path d="M1335 1990 c3 -5 8 -10 11 -10 2 0 4 5 4 10 0 6 -5 10 -11 10 -5 0
-7 -4 -4 -10z" />
    <path d="M1395 1991 c-11 -5 -22 -7 -25 -6 -3 2 -11 -3 -18 -11 -16 -18 -10
-18 35 1 42 18 46 18 38 5 l-6 -10 15 6 c8 3 26 -2 40 -11 14 -10 26 -14 26
-9 0 4 7 -1 15 -12 l14 -19 1 18 c0 15 -11 22 -32 18 -5 0 -8 3 -8 8 0 5 -11
12 -24 15 -13 3 -30 8 -38 10 -7 3 -22 1 -33 -3z" />
    <path d="M1045 1980 l-6 -10 15 6 c18 7 21 14 7 14 -6 0 -13 -4 -16 -10z" />
    <path d="M946 1958 c3 -5 10 -6 15 -3 13 9 11 12 -6 12 -8 0 -12 -4 -9 -9z" />
    <path d="M984 1958 l-7 -11 11 7 c7 4 12 9 12 12 0 8 -9 4 -16 -8z" />
    <path d="M885 1940 c-4 -6 -11 -8 -16 -5 -5 4 -9 1 -9 -4 0 -16 16 -13 30 4 7
8 10 15 7 15 -3 0 -9 -5 -12 -10z" />
    <path d="M905 1930 l-6 -10 15 6 c18 7 21 14 7 14 -6 0 -13 -4 -16 -10z" />
    <path d="M826 1915 c-10 -8 -23 -12 -29 -8 l-10 6 7 -11 7 -11 24 11 c14 6 25
15 25 20 0 10 -1 10 -24 -7z" />
    <path d="M1493 1923 c4 -3 10 -3 14 0 3 4 0 7 -7 7 -7 0 -10 -3 -7 -7z" />
    <path d="M1140 1910 c0 -7 3 -10 7 -7 3 4 3 10 0 14 -4 3 -7 0 -7 -7z" />
    <path d="M940 1895 l-12 -15 10 0 c5 0 12 7 16 15 3 8 4 15 2 15 -2 0 -9 -7
-16 -15z" />
    <path d="M1635 1230 c0 -373 3 -676 8 -673 4 2 7 10 6 16 -1 7 -1 303 0 659
l1 647 15 -5 15 -6 0 12 c0 6 -4 8 -10 5 -5 -3 -10 -2 -10 4 0 5 6 11 13 14 6
2 1 4 -13 4 l-25 1 0 -678z" />
    <path d="M840 1891 c0 -6 5 -13 10 -16 l10 -6 0 15 c0 9 -4 16 -10 16 -5 0
-10 -4 -10 -9z" />
    <path d="M785 1880 c3 -5 8 -10 11 -10 3 0 2 5 -1 10 -3 6 -8 10 -11 10 -3 0
-2 -4 1 -10z" />
    <path d="M1155 1881 c-3 -5 -1 -12 5 -16 l10 -6 0 15 c0 18 -6 21 -15 7z" />
    <path d="M1493 1883 c4 -3 10 -3 14 0 3 4 0 7 -7 7 -7 0 -10 -3 -7 -7z" />
    <path d="M1727 1879 c7 -7 15 -10 18 -7 3 3 -2 9 -12 12 l-18 7 12 -12z" />
    <path d="M697 1859 c7 -7 15 -10 18 -7 3 3 -2 9 -12 12 l-18 7 12 -12z" />
    <path d="M638 1848 c-16 -5 -28 -14 -28 -19 0 -6 -5 -7 -12 -3 l-11 7 7 -11
c4 -6 13 -9 21 -5 l15 5 0 -11 0 -11 18 18 c10 9 18 23 18 30 1 6 0 12 0 11
-1 0 -13 -5 -28 -11z m12 -12 c0 -3 -4 -8 -10 -11 -5 -3 -10 -1 -10 4 0 6 5
11 10 11 6 0 10 -2 10 -4z" />
    <path d="M1786 1839 c2 -4 -2 -9 -8 -12 l-13 -4 13 -14 c7 -8 13 -9 12 -4 -4
21 1 30 9 17 l8 -14 5 19 5 19 -18 0 c-10 0 -16 -3 -13 -7z" />
    <path d="M663 1813 c4 -3 10 -3 14 0 3 4 0 7 -7 7 -7 0 -10 -3 -7 -7z" />
    <path d="M547 1799 c7 -7 15 -10 18 -7 3 3 -2 9 -12 12 l-18 7 12 -12z" />
    <path d="M1815 1801 c-3 -5 -1 -12 5 -16 l10 -6 0 15 c0 18 -6 21 -15 7z" />
    <path d="M1949 1787 c6 -6 25 -12 42 -13 l31 -2 -9 9 c-5 5 -24 11 -43 14
l-33 4 12 -12z m28 -4 c-4 -3 -10 -3 -14 0 -3 4 0 7 7 7 7 0 10 -3 7 -7z" />
    <path d="M455 1775 c-16 -7 -24 -14 -17 -14 6 -1 12 -6 12 -11 l0 -11 -19 11
-20 10 -26 -10 -26 -10 6 -10 7 -11 12 10 c7 6 17 7 21 3 l8 -7 -7 13 c-10 16
0 15 28 -3 l23 -15 18 6 17 7 -23 18 -24 19 17 0 c9 0 20 -4 23 -10 9 -15 22
-12 29 6 l6 15 -11 -7 c-6 -4 -14 -2 -18 4 l-6 10 -30 -13z m12 -42 c-4 -3
-10 -3 -14 0 -3 4 0 7 7 7 7 0 10 -3 7 -7z" />
    <path d="M530 1780 c0 -7 3 -10 7 -7 3 4 3 10 0 14 -4 3 -7 0 -7 -7z" />
    <path d="M1933 1754 c0 -14 2 -21 6 -17 3 4 9 10 12 13 4 3 1 10 -6 17 l-12
11 0 -24z" />
    <path d="M2064 1755 c11 -8 23 -15 28 -15 4 0 5 -6 2 -14 -7 -18 12 -30 22
-15 l7 12 -11 -7 c-15 -9 -16 6 -2 20 l10 10 -37 12 -38 11 19 -14z" />
    <path d="M1993 1753 c4 -3 10 -3 14 0 3 4 0 7 -7 7 -7 0 -10 -3 -7 -7z" />
    <path d="M523 1743 c4 -3 10 -3 14 0 3 4 0 7 -7 7 -7 0 -10 -3 -7 -7z" />
    <path d="M1962 1734 c-14 -15 -7 -17 22 -5 l20 8 -15 5 c-8 3 -20 -1 -27 -8z" />
    <path d="M345 1720 c3 -5 8 -10 11 -10 3 0 2 5 -1 10 -3 6 -8 10 -11 10 -3 0
-2 -4 1 -10z" />
    <path d="M320 1710 c0 -5 5 -10 11 -10 5 0 7 5 4 10 -3 6 -8 10 -11 10 -2 0
-4 -4 -4 -10z" />
    <path d="M2160 1718 c-4 -14 -7 -28 -9 -35 -1 -5 -6 -1 -11 7 -5 8 -10 11 -10
5 0 -5 4 -16 9 -24 l9 -14 12 22 c6 12 9 27 6 34 -2 7 -5 9 -6 5z" />
    <path d="M335 1680 c3 -5 8 -10 11 -10 2 0 4 5 4 10 0 6 -5 10 -11 10 -5 0 -7
-4 -4 -10z" />
    <path d="M2106 1673 l-7 -18 12 12 c7 7 10 15 7 18 -3 3 -9 -2 -12 -12z" />
    <path d="M2115 1650 c-4 -6 -11 -7 -17 -4 l-11 7 7 -12 8 -12 12 10 c7 6 17 7
21 3 l8 -7 -7 13 c-9 15 -13 15 -21 2z" />
    <path d="M390 1640 c0 -7 3 -10 7 -7 3 4 3 10 0 14 -4 3 -7 0 -7 -7z" />
    <path d="M670 1540 c0 -7 3 -10 7 -7 3 4 3 10 0 14 -4 3 -7 0 -7 -7z" />
    <path d="M690 1536 c0 -8 4 -17 9 -20 l9 -6 -5 20 c-6 23 -13 26 -13 6z" />
    <path d="M716 1542 c-3 -5 1 -9 9 -9 8 0 12 4 9 9 -3 4 -7 8 -9 8 -2 0 -6 -4
-9 -8z" />
    <path d="M764 1535 c3 -9 6 -21 6 -26 0 -5 5 -8 11 -6 6 1 13 -6 14 -16 7 -43
35 -63 35 -26 0 6 -4 7 -10 4 l-10 -6 0 20 c0 11 -12 32 -26 47 l-27 26 7 -17z" />
    <path d="M785 1540 c3 -5 8 -10 11 -10 3 0 2 5 -1 10 -3 6 -8 10 -11 10 -3 0
-2 -4 1 -10z" />
    <path d="M860 1440 c0 -7 3 -10 7 -7 3 4 3 10 0 14 -4 3 -7 0 -7 -7z" />
    <path d="M1795 740 c3 -5 8 -10 11 -10 3 0 2 5 -1 10 -3 6 -8 10 -11 10 -3 0
-2 -4 1 -10z" />
    <path d="M1800 703 l-22 -28 6 18 6 18 -9 -6 c-6 -3 -9 -15 -8 -26 l1 -21 22
25 c12 14 25 23 28 20 3 -4 6 1 6 10 0 23 -5 21 -30 -10z" />
    <path d="M1795 660 l-6 -10 15 0 c9 0 16 -5 16 -12 0 -6 2 -9 5 -6 7 7 -5 38
-15 38 -5 0 -12 -4 -15 -10z" />
    <path d="M1897 659 c-9 -5 -22 -7 -27 -4 -6 3 -10 4 -10 1 0 -2 14 -11 31 -20
l31 -15 -12 14 c-12 14 -7 19 13 16 5 -1 6 3 2 9 -7 12 -6 12 -28 -1z" />
    <path d="M830 651 c0 -7 -4 -9 -10 -6 l-10 6 0 -25 c0 -14 5 -28 12 -32 l11
-7 -7 11 c-4 6 -2 21 4 33 7 11 9 23 6 27 -3 3 -6 0 -6 -7z" />
    <path d="M1514 629 c-3 -6 -1 -16 5 -22 l11 -11 0 22 c0 24 -5 28 -16 11z" />
    <path d="M840 610 c0 -7 3 -10 7 -7 3 4 3 10 0 14 -4 3 -7 0 -7 -7z" />
    <path d="M1880 610 c8 -5 20 -10 25 -10 6 0 3 5 -5 10 -8 5 -19 10 -25 10 -5
0 -3 -5 5 -10z" />
    <path d="M1844 598 l-7 -11 11 7 c12 7 16 16 8 16 -3 0 -8 -5 -12 -12z" />
    <path d="M1665 580 c3 -5 8 -10 11 -10 3 0 2 5 -1 10 -3 6 -8 10 -11 10 -3 0
-2 -4 1 -10z" />
    <path d="M1530 572 c0 -6 4 -13 9 -17 6 -3 8 -14 6 -25 l-4 -19 17 6 16 7 -11
3 c-7 3 -10 10 -7 17 3 7 -2 19 -11 26 l-15 12 0 -10z" />
    <path d="M783 555 c0 -8 4 -12 9 -9 5 3 6 10 3 15 -9 13 -12 11 -12 -6z" />
    <path d="M673 545 c-3 -9 -3 -18 -1 -21 3 -3 8 4 11 16 6 23 -1 27 -10 5z" />
    <path d="M706 552 l-8 -14 11 -11 c13 -13 43 -19 35 -6 -3 5 -9 7 -14 4 -5 -3
-10 5 -12 17 l-3 23 -9 -13z" />
    <path d="M1579 548 l-14 -10 17 5 c18 6 42 -15 30 -28 -4 -4 3 -2 16 4 25 13
30 23 7 15 -8 -4 -15 -2 -15 4 0 15 -25 21 -41 10z" />
    <path d="M770 520 l-15 -10 12 0 c6 0 15 5 18 10 8 12 4 12 -15 0z" />
    <path d="M2115 511 c-3 -5 -1 -12 5 -16 l10 -6 0 15 c0 18 -6 21 -15 7z" />
    <path d="M380 470 c0 -7 3 -10 7 -7 3 4 3 10 0 14 -4 3 -7 0 -7 -7z" />
    <path d="M2096 463 l-7 -18 12 12 c7 7 10 15 7 18 -3 3 -9 -2 -12 -12z" />
    <path d="M360 455 c0 -7 29 -65 33 -65 1 0 3 12 4 27 l1 26 -9 -14 -9 -14 0
17 c0 9 -4 20 -10 23 -5 3 -10 3 -10 0z" />
    <path d="M2115 450 l-7 -12 11 -11 c15 -15 25 -2 13 19 l-9 17 -8 -13z" />
    <path d="M2093 413 c4 -3 10 -3 14 0 3 4 0 7 -7 7 -7 0 -10 -3 -7 -7z" />
    <path d="M346 398 c3 -5 10 -6 15 -3 13 9 11 12 -6 12 -8 0 -12 -4 -9 -9z" />
    <path d="M2114 398 l-7 -11 11 7 c12 7 16 16 8 16 -3 0 -8 -5 -12 -12z" />
    <path d="M2137 386 c-8 -8 -17 -12 -21 -9 -3 4 -6 1 -6 -5 l0 -11 30 1 30 1 0
13 c0 20 -17 25 -33 10z" />
    <path d="M334 370 l0 -18 13 5 c7 3 13 9 13 13 0 4 -6 10 -13 13 l-13 5 0 -18z" />
    <path d="M376 376 l6 -16 -17 -6 -17 -7 14 -8 c20 -13 31 -11 25 5 -3 8 -1 16
5 18 l10 4 -16 13 -16 14 6 -17z" />
    <path d="M2135 350 c-3 -5 -1 -10 4 -10 6 0 11 5 11 10 0 6 -2 10 -4 10 -3 0
-8 -4 -11 -10z" />
    <path d="M415 330 l-6 -10 17 7 17 6 -6 -10 -7 -11 16 -6 c24 -9 31 -7 31 9
l0 15 -12 -10 -13 -11 -6 16 c-6 17 -22 20 -31 5z" />
    <path d="M2056 328 l7 -11 -19 7 -19 7 11 -11 c12 -12 47 -3 38 11 -3 5 -10 9
-15 9 l-10 0 7 -12z" />
    <path d="M2005 321 c-3 -5 -2 -12 3 -15 5 -3 9 1 9 9 0 17 -3 19 -12 6z" />
    <path d="M1923 303 c4 -3 10 -3 14 0 3 4 0 7 -7 7 -7 0 -10 -3 -7 -7z" />
    <path d="M1946 295 c-3 -9 -10 -14 -15 -10 -5 3 -12 1 -16 -5 -7 -11 11 -12
37 -2 l17 7 -8 13 -8 14 -7 -17z" />
    <path d="M525 290 l-6 -10 17 7 17 6 -6 -10 -7 -11 21 -5 21 -6 -18 20 c-19
21 -30 24 -39 9z" />
    <path d="M1890 290 c0 -7 3 -10 7 -7 3 4 3 10 0 14 -4 3 -7 0 -7 -7z" />
    <path d="M1850 270 c0 -22 17 -26 40 -9 l15 10 -22 -6 -23 -6 6 15 6 16 -11 0
c-6 0 -11 -9 -11 -20z" />
    <path d="M605 260 c-3 -5 -1 -10 4 -10 6 0 11 5 11 10 0 6 -2 10 -4 10 -3 0
-8 -4 -11 -10z" />
    <path d="M633 256 c0 -8 9 -17 19 -19 10 -3 16 -1 13 3 -3 5 0 10 7 12 l12 4
-12 8 -12 7 0 -12 0 -11 -13 11 -14 11 0 -14z" />
    <path d="M1763 263 c4 -3 10 -3 14 0 3 4 0 7 -7 7 -7 0 -10 -3 -7 -7z" />
    <path d="M1795 260 c-3 -5 -2 -10 4 -10 5 0 13 5 16 10 3 6 2 10 -4 10 -5 0
-13 -4 -16 -10z" />
    <path d="M743 253 c4 -3 10 -3 14 0 3 4 0 7 -7 7 -7 0 -10 -3 -7 -7z" />
    <path d="M1743 243 c4 -3 10 -3 14 0 3 4 0 7 -7 7 -7 0 -10 -3 -7 -7z" />
    <path d="M1633 233 c4 -3 10 -3 14 0 3 4 0 7 -7 7 -7 0 -10 -3 -7 -7z" />
    <path d="M1710 231 c0 -5 9 -13 21 -16 l21 -7 12 12 11 12 -20 -3 c-11 -2 -26
0 -32 4 l-13 8 0 -10z" />
    <path d="M735 220 l-6 -10 15 6 c18 7 21 14 7 14 -6 0 -13 -4 -16 -10z" />
    <path d="M1659 213 l-14 -18 18 14 c16 13 21 21 13 21 -2 0 -10 -8 -17 -17z" />
    <path d="M762 211 l-14 -8 14 -6 15 -5 0 14 c0 8 -1 14 -1 14 -1 0 -7 -4 -14
-9z" />
    <path d="M1686 212 c-3 -5 1 -9 9 -9 8 0 12 4 9 9 -3 4 -7 8 -9 8 -2 0 -6 -4
-9 -8z" />
    <path d="M1613 185 c0 -8 4 -15 9 -15 4 0 8 7 8 15 0 8 -4 15 -8 15 -5 0 -9
-7 -9 -15z" />
    <path d="M861 176 l-1 -18 15 6 c8 3 15 1 15 -4 0 -6 4 -10 10 -10 5 0 7 7 3
16 -3 8 -11 13 -19 10 -7 -3 -15 0 -18 7 l-4 12 -1 -19z" />
    <path d="M929 173 l-14 -18 18 14 c16 13 21 21 13 21 -2 0 -10 -8 -17 -17z" />
    <path d="M1105 180 c-4 -6 -4 -14 -1 -17 3 -4 6 -1 6 6 l0 11 25 -16 25 -16 0
16 0 17 -10 -6 c-6 -4 -17 -2 -25 5 l-13 11 -7 -11z" />
    <path d="M1347 179 c-9 -6 -15 -14 -12 -20 4 -5 1 -9 -4 -9 -6 0 -11 5 -11 12
0 6 -3 8 -7 5 -3 -4 -12 -2 -20 4 l-13 11 0 -11 c0 -6 11 -16 25 -21 13 -5 30
-18 37 -30 l13 -20 25 1 25 2 -22 4 c-26 5 -30 21 -8 29 l14 6 -14 15 c-9 8
-13 19 -10 24 8 11 5 11 -18 -2z m13 -19 c0 -5 0 -12 0 -15 0 -14 -13 -8 -16
8 -1 9 2 17 7 17 5 0 9 -4 9 -10z" />
    <path d="M1583 183 c4 -3 10 -3 14 0 3 4 0 7 -7 7 -7 0 -10 -3 -7 -7z" />
    <path d="M954 168 l-7 -11 11 7 c7 4 12 9 12 12 0 8 -9 4 -16 -8z" />
    <path d="M1558 173 c6 -2 10 -9 7 -14 l-6 -9 16 7 17 6 -14 8 c-7 5 -17 8 -23
8 -5 0 -4 -3 3 -6z" />
    <path d="M990 160 c8 -5 22 -9 30 -9 l15 0 -20 9 c-27 12 -43 12 -25 0z" />
    <path d="M1520 155 l-12 -15 14 0 c8 0 15 7 15 15 0 8 -1 15 -2 15 -2 0 -8 -7
-15 -15z" />
    <path d="M1040 150 c0 -7 3 -10 7 -7 3 4 3 10 0 14 -4 3 -7 0 -7 -7z" />
    <path d="M1483 153 c4 -3 10 -3 14 0 3 4 0 7 -7 7 -7 0 -10 -3 -7 -7z" />
    <path d="M923 143 c4 -3 10 -3 14 0 3 4 0 7 -7 7 -7 0 -10 -3 -7 -7z" />
    <path d="M970 139 l0 -17 22 -5 c12 -3 29 -1 37 4 l16 11 -17 -6 -18 -5 0 10
c0 6 -5 7 -11 3 -6 -3 -15 0 -20 7 l-9 14 0 -16z" />
    <path d="M1096 134 c-17 -16 -21 -34 -8 -34 16 0 34 18 28 28 -3 6 0 13 6 15
l13 5 -12 1 c-6 1 -19 -6 -27 -15z m14 -8 c0 -3 -5 -8 -12 -12 l-11 -7 7 11
c7 12 16 16 16 8z" />
    <path d="M1453 143 c4 -3 10 -3 14 0 3 4 0 7 -7 7 -7 0 -10 -3 -7 -7z" />
    <path d="M1395 130 l-20 -9 23 0 c13 -1 21 -5 18 -10 l-6 -9 20 5 c11 3 20 9
20 14 0 5 -7 5 -17 2 l-16 -6 7 11 c8 14 0 14 -29 2z" />
    <path d="M1475 130 l-6 -10 15 6 c18 7 21 14 7 14 -6 0 -13 -4 -16 -10z" />
    <path d="M1053 123 c4 -3 10 -3 14 0 3 4 0 7 -7 7 -7 0 -10 -3 -7 -7z" />
  </g>
  <g transform="translate(0.000000,251.000000) scale(0.100000,-0.100000)" fill="#424242" stroke="none">
    <path d="M1223 2393 c4 -3 10 -3 14 0 3 4 0 7 -7 7 -7 0 -10 -3 -7 -7z" />
    <path d="M1103 2363 c4 -3 10 -3 14 0 3 4 0 7 -7 7 -7 0 -10 -3 -7 -7z" />
    <path d="M1233 2193 c4 -3 10 -3 14 0 3 4 0 7 -7 7 -7 0 -10 -3 -7 -7z" />
    <path d="M1323 2163 c4 -3 10 -3 14 0 3 4 0 7 -7 7 -7 0 -10 -3 -7 -7z" />
    <path d="M1368 2003 c6 -2 18 -2 25 0 6 3 1 5 -13 5 -14 0 -19 -2 -12 -5z" />
    <path d="M1443 1983 c4 -3 10 -3 14 0 3 4 0 7 -7 7 -7 0 -10 -3 -7 -7z" />
    <path d="M1281 1914 l1 -19 5 13 c3 7 2 16 -1 19 -3 4 -6 -2 -5 -13z" />
    <path d="M1522 1910 c0 -14 2 -19 5 -12 2 6 2 18 0 25 -3 6 -5 1 -5 -13z" />
    <path d="M1525 1260 c0 -344 1 -484 2 -312 2 171 2 453 0 625 -1 171 -2 31 -2
-313z" />
    <path d="M663 1853 c4 -3 10 -3 14 0 3 4 0 7 -7 7 -7 0 -10 -3 -7 -7z" />
    <path d="M1825 1260 c0 -311 1 -438 2 -283 2 156 2 410 0 565 -1 156 -2 29 -2
-282z" />
    <path d="M2155 1720 c3 -5 8 -10 11 -10 3 0 2 5 -1 10 -3 6 -8 10 -11 10 -3 0
-2 -4 1 -10z" />
    <path d="M320 1710 c0 -7 3 -10 7 -7 3 4 3 10 0 14 -4 3 -7 0 -7 -7z" />
    <path d="M364 1550 c0 -52 1 -74 3 -47 2 26 2 68 0 95 -2 26 -3 4 -3 -48z" />
    <path d="M706 1525 c-3 -8 -1 -15 4 -15 13 0 22 18 11 24 -5 3 -11 -1 -15 -9z" />
    <path d="M800 1460 c0 -7 3 -10 7 -7 3 4 3 10 0 14 -4 3 -7 0 -7 -7z" />
    <path d="M364 1230 c0 -52 1 -74 3 -47 2 26 2 68 0 95 -2 26 -3 4 -3 -48z" />
    <path d="M364 990 c0 -52 1 -74 3 -47 2 26 2 68 0 95 -2 26 -3 4 -3 -48z" />
    <path d="M1521 614 l1 -19 5 13 c3 7 2 16 -1 19 -3 4 -6 -2 -5 -13z" />
    <path d="M363 520 c0 -47 2 -66 4 -42 2 23 2 61 0 85 -2 23 -4 4 -4 -43z" />
    <path d="M1615 571 c-3 -5 -2 -12 3 -15 5 -3 9 1 9 9 0 17 -3 19 -12 6z" />
    <path d="M730 529 c0 -5 5 -7 10 -4 6 3 10 8 10 11 0 2 -4 4 -10 4 -5 0 -10
-5 -10 -11z" />
    <path d="M2161 374 l1 -19 5 13 c3 7 2 16 -1 19 -3 4 -6 -2 -5 -13z" />
    <path d="M2133 343 c4 -3 10 -3 14 0 3 4 0 7 -7 7 -7 0 -10 -3 -7 -7z" />
    <path d="M428 313 c7 -3 16 -2 19 1 4 3 -2 6 -13 5 l-19 -1 13 -5z" />
    <path d="M743 203 c4 -3 10 -3 14 0 3 4 0 7 -7 7 -7 0 -10 -3 -7 -7z" />
    <path d="M1463 123 c4 -3 10 -3 14 0 3 4 0 7 -7 7 -7 0 -10 -3 -7 -7z" />
    <path d="M1433 113 c4 -3 10 -3 14 0 3 4 0 7 -7 7 -7 0 -10 -3 -7 -7z" />
  </g>
  <g transform="translate(0.000000,251.000000) scale(0.100000,-0.100000)" fill="#323232" stroke="none">
    <path d="M1293 2373 c4 -3 10 -3 14 0 3 4 0 7 -7 7 -7 0 -10 -3 -7 -7z" />
    <path d="M1163 2183 c4 -3 10 -3 14 0 3 4 0 7 -7 7 -7 0 -10 -3 -7 -7z" />
    <path d="M1296 1964 l-6 -17 15 13 c17 14 19 20 6 20 -5 0 -12 -7 -15 -16z" />
    <path d="M1521 1934 l1 -19 5 13 c3 7 2 16 -1 19 -3 4 -6 -2 -5 -13z" />
    <path d="M1285 1045 c0 -478 1 -676 2 -438 2 237 2 629 0 870 -1 241 -2 47 -2
-432z" />
    <path d="M733 1883 c4 -3 10 -3 14 0 3 4 0 7 -7 7 -7 0 -10 -3 -7 -7z" />
    <path d="M453 1773 c4 -3 10 -3 14 0 3 4 0 7 -7 7 -7 0 -10 -3 -7 -7z" />
    <path d="M2161 1704 l1 -19 5 13 c3 7 2 16 -1 19 -3 4 -6 -2 -5 -13z" />
    <path d="M2144 1668 l-7 -11 11 7 c7 4 12 9 12 12 0 8 -9 4 -16 -8z" />
    <path d="M1520 600 c0 -7 3 -10 7 -7 3 4 3 10 0 14 -4 3 -7 0 -7 -7z" />
    <path d="M2121 454 l1 -19 5 13 c3 7 2 16 -1 19 -3 4 -6 -2 -5 -13z" />
    <path d="M2073 323 c4 -3 10 -3 14 0 3 4 0 7 -7 7 -7 0 -10 -3 -7 -7z" />
    <path d="M2013 303 c4 -3 10 -3 14 0 3 4 0 7 -7 7 -7 0 -10 -3 -7 -7z" />
    <path d="M1918 273 c7 -3 16 -2 19 1 4 3 -2 6 -13 5 l-19 -1 13 -5z" />
    <path d="M1583 163 c4 -3 10 -3 14 0 3 4 0 7 -7 7 -7 0 -10 -3 -7 -7z" />
    <path d="M1038 103 c7 -3 16 -2 19 1 4 3 -2 6 -13 5 l-19 -1 13 -5z" />
    <path d="M1083 103 c4 -3 10 -3 14 0 3 4 0 7 -7 7 -7 0 -10 -3 -7 -7z" />
  </g>
  <g transform="translate(0.000000,251.000000) scale(0.100000,-0.100000)" fill="#5c5c5c" stroke="none">
    <path d="M1125 1980 c3 -5 8 -10 11 -10 3 0 2 5 -1 10 -3 6 -8 10 -11 10 -3 0
-2 -4 1 -10z" />
    <path d="M1165 1050 c0 -481 1 -678 2 -438 2 241 2 635 0 875 -1 241 -2 44 -2
-437z" />
    <path d="M340 1671 c0 -6 4 -13 10 -16 l10 -6 -6 15 c-7 18 -14 21 -14 7z" />
    <path d="M770 1505 c0 -2 6 -8 13 -14 l14 -11 0 13 c0 8 -6 14 -14 14 -7 0
-13 -1 -13 -2z" />
    <path d="M812 640 c0 -14 2 -19 5 -12 2 6 2 18 0 25 -3 6 -5 1 -5 -13z" />
    <path d="M804 598 l-7 -11 11 7 c7 4 12 9 12 12 0 8 -9 4 -16 -8z" />
    <path d="M2135 420 c3 -5 8 -10 11 -10 3 0 2 5 -1 10 -3 6 -8 10 -11 10 -3 0
-2 -4 1 -10z" />
    <path d="M337 349 c7 -7 15 -10 18 -7 3 3 -2 9 -12 12 l-18 7 12 -12z" />
    <path d="M2043 313 c4 -3 10 -3 14 0 3 4 0 7 -7 7 -7 0 -10 -3 -7 -7z" />
    <path d="M663 233 c4 -3 10 -3 14 0 3 4 0 7 -7 7 -7 0 -10 -3 -7 -7z" />
    <path d="M1281 174 l1 -19 5 13 c3 7 2 16 -1 19 -3 4 -6 -2 -5 -13z" />
  </g>
  <g transform="translate(0.000000,251.000000) scale(0.100000,-0.100000)" fill="#222222" stroke="none">
    <path d="M360 1740 l-15 -10 12 0 c6 0 15 5 18 10 8 12 4 12 -15 0z" />
    <path d="M355 1640 c3 -5 8 -10 11 -10 3 0 2 5 -1 10 -3 6 -8 10 -11 10 -3 0
-2 -4 1 -10z" />
    <path d="M2125 1045 c0 -324 1 -456 2 -292 2 164 2 430 0 590 -1 161 -2 27 -2
-298z" />
    <path d="M774 1508 l-7 -11 11 7 c12 7 16 16 8 16 -3 0 -8 -5 -12 -12z" />
    <path d="M2125 440 c3 -5 8 -10 11 -10 3 0 2 5 -1 10 -3 6 -8 10 -11 10 -3 0
-2 -4 1 -10z" />
    <path d="M400 326 c0 -2 7 -7 16 -10 l15 -6 -6 10 c-6 10 -25 14 -25 6z" />
    <path d="M633 243 c4 -3 10 -3 14 0 3 4 0 7 -7 7 -7 0 -10 -3 -7 -7z" />
    <path d="M1733 213 c4 -3 10 -3 14 0 3 4 0 7 -7 7 -7 0 -10 -3 -7 -7z" />
    <path d="M1703 203 c4 -3 10 -3 14 0 3 4 0 7 -7 7 -7 0 -10 -3 -7 -7z" />
    <path d="M1003 113 c4 -3 10 -3 14 0 3 4 0 7 -7 7 -7 0 -10 -3 -7 -7z" />
  </g>
  <g transform="translate(0.000000,251.000000) scale(0.100000,-0.100000)" fill="#818181" stroke="none">
    <path d="M1323 2363 c4 -3 10 -3 14 0 3 4 0 7 -7 7 -7 0 -10 -3 -7 -7z" />
    <path d="M1060 2320 c0 -7 3 -10 7 -7 3 4 3 10 0 14 -4 3 -7 0 -7 -7z" />
    <path d="M1193 2193 c4 -3 10 -3 14 0 3 4 0 7 -7 7 -7 0 -10 -3 -7 -7z" />
    <path d="M1133 2173 c4 -3 10 -3 14 0 3 4 0 7 -7 7 -7 0 -10 -3 -7 -7z" />
    <path d="M1103 2163 c4 -3 10 -3 14 0 3 4 0 7 -7 7 -7 0 -10 -3 -7 -7z" />
    <path d="M1043 2003 c4 -3 10 -3 14 0 3 4 0 7 -7 7 -7 0 -10 -3 -7 -7z" />
    <path d="M675 1860 l-6 -10 15 6 c18 7 21 14 7 14 -6 0 -13 -4 -16 -10z" />
    <path d="M403 1753 c4 -3 10 -3 14 0 3 4 0 7 -7 7 -7 0 -10 -3 -7 -7z" />
    <path d="M2100 1746 c0 -2 7 -7 16 -10 l15 -6 -6 10 c-6 10 -25 14 -25 6z" />
    <path d="M716 1529 c2 -4 1 -9 -3 -11 -5 -1 -6 -221 -3 -488 l5 -485 3 488 2
487 10 0 c6 0 10 4 10 8 0 5 -7 9 -15 9 -8 0 -12 -4 -9 -8z" />
    <path d="M1826 675 c4 -8 11 -15 16 -15 l10 0 -12 15 c-7 8 -14 15 -16 15 -2
0 -1 -7 2 -15z" />
    <path d="M1535 570 c3 -5 8 -10 11 -10 3 0 2 5 -1 10 -3 6 -8 10 -11 10 -3 0
-2 -4 1 -10z" />
    <path d="M447 309 c7 -7 15 -10 18 -7 3 3 -2 9 -12 12 l-18 7 12 -12z" />
    <path d="M507 289 c7 -7 15 -10 18 -7 3 3 -2 9 -12 12 l-18 7 12 -12z" />
    <path d="M1144 148 l-7 -11 11 7 c7 4 12 9 12 12 0 8 -9 4 -16 -8z" />
    <path d="M1500 140 c-18 -12 -2 -12 25 0 l20 9 -15 0 c-8 0 -22 -4 -30 -9z" />
    <path d="M1305 130 c3 -5 8 -10 11 -10 3 0 2 5 -1 10 -3 6 -8 10 -11 10 -3 0
-2 -4 1 -10z" />
  </g>
  <g transform="translate(0.000000,251.000000) scale(0.100000,-0.100000)" fill="#111111" stroke="none">
    <path d="M1080 2350 c0 -7 3 -10 7 -7 3 4 3 10 0 14 -4 3 -7 0 -7 -7z" />
    <path d="M1312 2181 l-14 -8 14 -6 15 -5 0 14 c0 8 -1 14 -1 14 -1 0 -7 -4
-14 -9z" />
    <path d="M1075 2000 c3 -5 8 -10 11 -10 2 0 4 5 4 10 0 6 -5 10 -11 10 -5 0
-7 -4 -4 -10z" />
    <path d="M1013 1993 c4 -3 10 -3 14 0 3 4 0 7 -7 7 -7 0 -10 -3 -7 -7z" />
    <path d="M1310 1980 l-15 -10 12 0 c6 0 15 5 18 10 8 12 4 12 -15 0z" />
    <path d="M960 1969 c0 -5 5 -7 10 -4 6 3 10 8 10 11 0 2 -4 4 -10 4 -5 0 -10
-5 -10 -11z" />
    <path d="M1473 1973 c4 -3 10 -3 14 0 3 4 0 7 -7 7 -7 0 -10 -3 -7 -7z" />
    <path d="M1063 1963 c4 -3 10 -3 14 0 3 4 0 7 -7 7 -7 0 -10 -3 -7 -7z" />
    <path d="M1494 1958 l-7 -11 11 7 c12 7 16 16 8 16 -3 0 -8 -5 -12 -12z" />
    <path d="M913 1953 c4 -3 10 -3 14 0 3 4 0 7 -7 7 -7 0 -10 -3 -7 -7z" />
    <path d="M810 1910 c0 -5 5 -10 11 -10 5 0 7 5 4 10 -3 6 -8 10 -11 10 -2 0
-4 -4 -4 -10z" />
    <path d="M923 1913 c4 -3 10 -3 14 0 3 4 0 7 -7 7 -7 0 -10 -3 -7 -7z" />
    <path d="M1633 1903 c4 -3 10 -3 14 0 3 4 0 7 -7 7 -7 0 -10 -3 -7 -7z" />
    <path d="M1743 1873 c4 -3 10 -3 14 0 3 4 0 7 -7 7 -7 0 -10 -3 -7 -7z" />
    <path d="M1800 1856 c0 -2 7 -9 15 -16 l15 -12 0 10 c0 5 -7 12 -15 16 -8 3
-15 4 -15 2z" />
    <path d="M583 1823 c4 -3 10 -3 14 0 3 4 0 7 -7 7 -7 0 -10 -3 -7 -7z" />
    <path d="M490 1790 c-8 -5 -12 -12 -9 -15 4 -3 12 1 19 10 14 17 11 19 -10 5z" />
    <path d="M2007 1779 c7 -7 15 -10 18 -7 3 3 -2 9 -12 12 l-18 7 12 -12z" />
    <path d="M2087 1749 c7 -7 15 -10 18 -7 3 3 -2 9 -12 12 l-18 7 12 -12z" />
    <path d="M340 1730 l-15 -10 12 0 c6 0 15 5 18 10 8 12 4 12 -15 0z" />
    <path d="M335 1680 c3 -5 8 -10 11 -10 3 0 2 5 -1 10 -3 6 -8 10 -11 10 -3 0
-2 -4 1 -10z" />
    <path d="M730 1531 c0 -5 7 -12 16 -15 l17 -6 -13 15 c-14 17 -20 19 -20 6z" />
    <path d="M785 1510 c3 -5 8 -10 11 -10 3 0 2 5 -1 10 -3 6 -8 10 -11 10 -3 0
-2 -4 1 -10z" />
    <path d="M1820 690 c0 -7 3 -10 7 -7 3 4 3 10 0 14 -4 3 -7 0 -7 -7z" />
    <path d="M1916 673 l-7 -18 12 12 c7 7 10 15 7 18 -3 3 -9 -2 -12 -12z" />
    <path d="M1835 660 c3 -5 8 -10 11 -10 2 0 4 5 4 10 0 6 -5 10 -11 10 -5 0 -7
-4 -4 -10z" />
    <path d="M810 610 c0 -7 3 -10 7 -7 3 4 3 10 0 14 -4 3 -7 0 -7 -7z" />
    <path d="M1620 582 c0 -5 7 -9 15 -9 8 0 12 4 9 9 -3 4 -9 8 -15 8 -5 0 -9 -4
-9 -8z" />
    <path d="M1540 560 c0 -5 5 -10 11 -10 5 0 7 5 4 10 -3 6 -8 10 -11 10 -2 0
-4 -4 -4 -10z" />
    <path d="M775 550 c3 -5 8 -10 11 -10 3 0 2 5 -1 10 -3 6 -8 10 -11 10 -3 0
-2 -4 1 -10z" />
    <path d="M1615 550 l-6 -10 15 6 c18 7 21 14 7 14 -6 0 -13 -4 -16 -10z" />
    <path d="M705 541 c-3 -5 -1 -12 5 -16 l10 -6 0 15 c0 18 -6 21 -15 7z" />
    <path d="M730 530 c0 -7 3 -10 7 -7 3 4 3 10 0 14 -4 3 -7 0 -7 -7z" />
    <path d="M2130 430 c0 -7 3 -10 7 -7 3 4 3 10 0 14 -4 3 -7 0 -7 -7z" />
    <path d="M470 300 c8 -5 22 -9 30 -9 l15 0 -20 9 c-27 12 -43 12 -25 0z" />
    <path d="M1904 268 l-7 -11 11 7 c7 4 12 9 12 12 0 8 -9 4 -16 -8z" />
    <path d="M1845 250 l-6 -10 15 6 c18 7 21 14 7 14 -6 0 -13 -4 -16 -10z" />
    <path d="M1785 230 l-6 -10 15 6 c18 7 21 14 7 14 -6 0 -13 -4 -16 -10z" />
    <path d="M720 216 c0 -2 7 -7 16 -10 l15 -6 -6 10 c-6 10 -25 14 -25 6z" />
    <path d="M1675 200 c-3 -5 -1 -10 4 -10 6 0 11 5 11 10 0 6 -2 10 -4 10 -3 0
-8 -4 -11 -10z" />
    <path d="M1146 178 c3 -5 10 -6 15 -3 13 9 11 12 -6 12 -8 0 -12 -4 -9 -9z" />
    <path d="M1513 143 c4 -3 10 -3 14 0 3 4 0 7 -7 7 -7 0 -10 -3 -7 -7z" />
    <path d="M1110 120 c0 -7 3 -10 7 -7 3 4 3 10 0 14 -4 3 -7 0 -7 -7z" />
    <path d="M1335 120 l-6 -10 15 6 c18 7 21 14 7 14 -6 0 -13 -4 -16 -10z" />
    <path d="M1363 103 c4 -3 10 -3 14 0 3 4 0 7 -7 7 -7 0 -10 -3 -7 -7z" />
  </g>
  <g transform="translate(0.000000,251.000000) scale(0.100000,-0.100000)" fill="#3b3b3b" stroke="none">
    <path d="M1263 2383 c4 -3 10 -3 14 0 3 4 0 7 -7 7 -7 0 -10 -3 -7 -7z" />
    <path d="M1133 2373 c4 -3 10 -3 14 0 3 4 0 7 -7 7 -7 0 -10 -3 -7 -7z" />
    <path d="M1151 1944 l1 -19 5 13 c3 7 2 16 -1 19 -3 4 -6 -2 -5 -13z" />
    <path d="M1521 1884 l1 -19 5 13 c3 7 2 16 -1 19 -3 4 -6 -2 -5 -13z" />
    <path d="M1693 1893 c4 -3 10 -3 14 0 3 4 0 7 -7 7 -7 0 -10 -3 -7 -7z" />
    <path d="M1820 1820 c0 -7 3 -10 7 -7 3 4 3 10 0 14 -4 3 -7 0 -7 -7z" />
    <path d="M503 1793 c4 -3 10 -3 14 0 3 4 0 7 -7 7 -7 0 -10 -3 -7 -7z" />
    <path d="M1963 1793 c4 -3 10 -3 14 0 3 4 0 7 -7 7 -7 0 -10 -3 -7 -7z" />
    <path d="M2073 1753 c4 -3 10 -3 14 0 3 4 0 7 -7 7 -7 0 -10 -3 -7 -7z" />
    <path d="M363 1390 c0 -47 2 -66 4 -42 2 23 2 61 0 85 -2 23 -4 4 -4 -43z" />
    <path d="M811 1434 l1 -19 5 13 c3 7 2 16 -1 19 -3 4 -6 -2 -5 -13z" />
    <path d="M363 1110 c0 -25 2 -35 4 -22 2 12 2 32 0 45 -2 12 -4 2 -4 -23z" />
    <path d="M364 750 c0 -91 2 -128 3 -82 2 45 2 119 0 165 -1 45 -3 8 -3 -83z" />
    <path d="M1820 700 c0 -7 3 -10 7 -7 3 4 3 10 0 14 -4 3 -7 0 -7 -7z" />
    <path d="M1840 660 c0 -6 7 -10 15 -10 8 0 15 2 15 4 0 2 -7 6 -15 10 -8 3
-15 1 -15 -4z" />
    <path d="M1521 634 l1 -19 5 13 c3 7 2 16 -1 19 -3 4 -6 -2 -5 -13z" />
    <path d="M810 620 c0 -7 3 -10 7 -7 3 4 3 10 0 14 -4 3 -7 0 -7 -7z" />
    <path d="M1545 560 c3 -5 8 -10 11 -10 3 0 2 5 -1 10 -3 6 -8 10 -11 10 -3 0
-2 -4 1 -10z" />
    <path d="M764 548 l-7 -11 11 7 c7 4 12 9 12 12 0 8 -9 4 -16 -8z" />
    <path d="M1953 283 c4 -3 10 -3 14 0 3 4 0 7 -7 7 -7 0 -10 -3 -7 -7z" />
    <path d="M543 273 c4 -3 10 -3 14 0 3 4 0 7 -7 7 -7 0 -10 -3 -7 -7z" />
    <path d="M1893 263 c4 -3 10 -3 14 0 3 4 0 7 -7 7 -7 0 -10 -3 -7 -7z" />
    <path d="M773 193 c4 -3 10 -3 14 0 3 4 0 7 -7 7 -7 0 -10 -3 -7 -7z" />
    <path d="M1285 160 c3 -5 8 -10 11 -10 3 0 2 5 -1 10 -3 6 -8 10 -11 10 -3 0
-2 -4 1 -10z" />
  </g>
  <g transform="translate(0.000000,251.000000) scale(0.100000,-0.100000)" fill="#616161" stroke="none">
    <path d="M1371 2324 l1 -19 5 13 c3 7 2 16 -1 19 -3 4 -6 -2 -5 -13z" />
    <path d="M1371 2184 l1 -19 5 13 c3 7 2 16 -1 19 -3 4 -6 -2 -5 -13z" />
    <path d="M1324 1988 l-7 -11 11 7 c12 7 16 16 8 16 -3 0 -8 -5 -12 -12z" />
    <path d="M2123 1733 c4 -3 10 -3 14 0 3 4 0 7 -7 7 -7 0 -10 -3 -7 -7z" />
    <path d="M324 1718 l-7 -11 11 7 c12 7 16 16 8 16 -3 0 -8 -5 -12 -12z" />
    <path d="M815 1030 c0 -212 1 -298 2 -193 2 106 2 280 0 385 -1 106 -2 20 -2
-192z" />
    <path d="M603 253 c4 -3 10 -3 14 0 3 4 0 7 -7 7 -7 0 -10 -3 -7 -7z" />
    <path d="M1743 213 c4 -3 10 -3 14 0 3 4 0 7 -7 7 -7 0 -10 -3 -7 -7z" />
    <path d="M1673 193 c4 -3 10 -3 14 0 3 4 0 7 -7 7 -7 0 -10 -3 -7 -7z" />
    <path d="M1353 103 c4 -3 10 -3 14 0 3 4 0 7 -7 7 -7 0 -10 -3 -7 -7z" />
  </g>
  <g transform="translate(0.000000,251.000000) scale(0.100000,-0.100000)" fill="#1c1c1c" stroke="none">
    <path d="M1208 2393 c7 -3 16 -2 19 1 4 3 -2 6 -13 5 l-19 -1 13 -5z" />
    <path d="M960 1970 c0 -7 3 -10 7 -7 3 4 3 10 0 14 -4 3 -7 0 -7 -7z" />
    <path d="M1155 1930 c3 -5 8 -10 11 -10 3 0 2 5 -1 10 -3 6 -8 10 -11 10 -3 0
-2 -4 1 -10z" />
    <path d="M815 1910 c3 -5 8 -10 11 -10 3 0 2 5 -1 10 -3 6 -8 10 -11 10 -3 0
-2 -4 1 -10z" />
    <path d="M533 1803 c4 -3 10 -3 14 0 3 4 0 7 -7 7 -7 0 -10 -3 -7 -7z" />
    <path d="M2155 1689 c-4 -6 -5 -12 -2 -15 2 -3 7 2 10 11 7 17 1 20 -8 4z" />
    <path d="M350 1650 c0 -7 3 -10 7 -7 3 4 3 10 0 14 -4 3 -7 0 -7 -7z" />
    <path d="M1840 660 c0 -7 3 -10 7 -7 3 4 3 10 0 14 -4 3 -7 0 -7 -7z" />
    <path d="M1900 660 l-15 -10 12 0 c6 0 15 5 18 10 8 12 4 12 -15 0z" />
    <path d="M1620 580 c0 -7 3 -10 7 -7 3 4 3 10 0 14 -4 3 -7 0 -7 -7z" />
    <path d="M710 530 c0 -7 3 -10 7 -7 3 4 3 10 0 14 -4 3 -7 0 -7 -7z" />
    <path d="M331 394 l-12 -27 12 -11 12 -11 -7 12 c-4 7 -2 22 4 34 7 11 10 23
7 25 -2 2 -9 -8 -16 -22z" />
    <path d="M2103 333 c4 -3 10 -3 14 0 3 4 0 7 -7 7 -7 0 -10 -3 -7 -7z" />
    <path d="M1815 240 l-6 -10 15 6 c18 7 21 14 7 14 -6 0 -13 -4 -16 -10z" />
    <path d="M675 230 c3 -4 14 -10 25 -13 11 -3 18 -2 15 3 -3 4 -14 10 -25 13
-11 3 -18 2 -15 -3z" />
    <path d="M1755 220 l-6 -10 15 6 c18 7 21 14 7 14 -6 0 -13 -4 -16 -10z" />
    <path d="M1643 183 c4 -3 10 -3 14 0 3 4 0 7 -7 7 -7 0 -10 -3 -7 -7z" />
    <path d="M833 173 c4 -3 10 -3 14 0 3 4 0 7 -7 7 -7 0 -10 -3 -7 -7z" />
    <path d="M1393 103 c4 -3 10 -3 14 0 3 4 0 7 -7 7 -7 0 -10 -3 -7 -7z" />
  </g>
  <g transform="translate(0.000000,251.000000) scale(0.100000,-0.100000)" fill="#4b4b4b" stroke="none">
    <path d="M1263 2183 c4 -3 10 -3 14 0 3 4 0 7 -7 7 -7 0 -10 -3 -7 -7z" />
    <path d="M1293 2173 c4 -3 10 -3 14 0 3 4 0 7 -7 7 -7 0 -10 -3 -7 -7z" />
    <path d="M1364 2168 l-7 -11 11 7 c12 7 16 16 8 16 -3 0 -8 -5 -12 -12z" />
    <path d="M1058 2003 c7 -3 16 -2 19 1 4 3 -2 6 -13 5 l-19 -1 13 -5z" />
    <path d="M1130 1976 c0 -2 8 -10 18 -17 l17 -14 -14 18 c-13 16 -21 21 -21 13z" />
    <path d="M1520 1950 c0 -7 3 -10 7 -7 3 4 3 10 0 14 -4 3 -7 0 -7 -7z" />
    <path d="M1280 1930 c0 -7 3 -10 7 -7 3 4 3 10 0 14 -4 3 -7 0 -7 -7z" />
    <path d="M1821 1834 l1 -19 5 13 c3 7 2 16 -1 19 -3 4 -6 -2 -5 -13z" />
    <path d="M1993 1783 c4 -3 10 -3 14 0 3 4 0 7 -7 7 -7 0 -10 -3 -7 -7z" />
    <path d="M373 1743 c4 -3 10 -3 14 0 3 4 0 7 -7 7 -7 0 -10 -3 -7 -7z" />
    <path d="M784 568 l-7 -11 11 7 c7 4 12 9 12 12 0 8 -9 4 -16 -8z" />
    <path d="M2155 390 c3 -5 8 -10 11 -10 3 0 2 5 -1 10 -3 6 -8 10 -11 10 -3 0
-2 -4 1 -10z" />
    <path d="M483 293 c4 -3 10 -3 14 0 3 4 0 7 -7 7 -7 0 -10 -3 -7 -7z" />
    <path d="M1863 253 c4 -3 10 -3 14 0 3 4 0 7 -7 7 -7 0 -10 -3 -7 -7z" />
    <path d="M1803 233 c4 -3 10 -3 14 0 3 4 0 7 -7 7 -7 0 -10 -3 -7 -7z" />
  </g>
  <g transform="translate(0.000000,251.000000) scale(0.100000,-0.100000)" fill="#6a6a6a" stroke="none">
    <path d="M1373 2255 c0 -38 2 -53 4 -32 2 20 2 52 0 70 -2 17 -4 1 -4 -38z" />
    <path d="M1160 1920 c0 -7 3 -10 7 -7 3 4 3 10 0 14 -4 3 -7 0 -7 -7z" />
    <path d="M811 1414 l1 -19 5 13 c3 7 2 16 -1 19 -3 4 -6 -2 -5 -13z" />
    <path d="M320 370 c0 -7 3 -10 7 -7 3 4 3 10 0 14 -4 3 -7 0 -7 -7z" />
    <path d="M1983 293 c4 -3 10 -3 14 0 3 4 0 7 -7 7 -7 0 -10 -3 -7 -7z" />
    <path d="M623 243 c4 -3 10 -3 14 0 3 4 0 7 -7 7 -7 0 -10 -3 -7 -7z" />
    <path d="M1613 173 c4 -3 10 -3 14 0 3 4 0 7 -7 7 -7 0 -10 -3 -7 -7z" />
  </g>
  <g transform="translate(0.000000,251.000000) scale(0.100000,-0.100000)" fill="#999999" stroke="none">
    <path d="M1060 2310 c0 -7 3 -10 7 -7 3 4 3 10 0 14 -4 3 -7 0 -7 -7z" />
    <path d="M1063 2235 c0 -33 2 -45 4 -27 2 18 2 45 0 60 -2 15 -4 0 -4 -33z" />
    <path d="M1933 1793 c4 -3 10 -3 14 0 3 4 0 7 -7 7 -7 0 -10 -3 -7 -7z" />
    <path d="M387 329 c7 -7 15 -10 18 -7 3 3 -2 9 -12 12 l-18 7 12 -12z" />
    <path d="M615 250 c3 -5 8 -10 11 -10 3 0 2 5 -1 10 -3 6 -8 10 -11 10 -3 0
-2 -4 1 -10z" />
    <path d="M973 123 c4 -3 10 -3 14 0 3 4 0 7 -7 7 -7 0 -10 -3 -7 -7z" />
    <path d="M1403 103 c4 -3 10 -3 14 0 3 4 0 7 -7 7 -7 0 -10 -3 -7 -7z" />
  </g>
  <g transform="translate(0.000000,251.000000) scale(0.100000,-0.100000)" fill="#2a2a2a" stroke="none">
    <path d="M1353 2353 c4 -3 10 -3 14 0 3 4 0 7 -7 7 -7 0 -10 -3 -7 -7z" />
    <path d="M1773 1863 c4 -3 10 -3 14 0 3 4 0 7 -7 7 -7 0 -10 -3 -7 -7z" />
    <path d="M2043 1763 c4 -3 10 -3 14 0 3 4 0 7 -7 7 -7 0 -10 -3 -7 -7z" />
    <path d="M805 1450 c3 -5 8 -10 11 -10 3 0 2 5 -1 10 -3 6 -8 10 -11 10 -3 0
-2 -4 1 -10z" />
    <path d="M344 418 l-7 -11 11 7 c7 4 12 9 12 12 0 8 -9 4 -16 -8z" />
    <path d="M373 333 c4 -3 10 -3 14 0 3 4 0 7 -7 7 -7 0 -10 -3 -7 -7z" />
    <path d="M573 263 c4 -3 10 -3 14 0 3 4 0 7 -7 7 -7 0 -10 -3 -7 -7z" />
    <path d="M803 183 c4 -3 10 -3 14 0 3 4 0 7 -7 7 -7 0 -10 -3 -7 -7z" />
    <path d="M1553 153 c4 -3 10 -3 14 0 3 4 0 7 -7 7 -7 0 -10 -3 -7 -7z" />
  </g>
  <g transform="translate(0.000000,251.000000) scale(0.100000,-0.100000)" fill="#7a7a7a" stroke="none">
    <path d="M1073 2003 c4 -3 10 -3 14 0 3 4 0 7 -7 7 -7 0 -10 -3 -7 -7z" />
    <path d="M710 550 c0 -7 3 -10 7 -7 3 4 3 10 0 14 -4 3 -7 0 -7 -7z" />
    <path d="M1833 243 c4 -3 10 -3 14 0 3 4 0 7 -7 7 -7 0 -10 -3 -7 -7z" />
  </g>
  <g transform="translate(0.000000,251.000000) scale(0.100000,-0.100000)" fill="#8b8b8b" stroke="none">
    <path d="M774 558 l-7 -11 11 7 c7 4 12 9 12 12 0 8 -9 4 -16 -8z" />
    <path d="M710 540 c0 -7 3 -10 7 -7 3 4 3 10 0 14 -4 3 -7 0 -7 -7z" />
    <path d="M683 223 c4 -3 10 -3 14 0 3 4 0 7 -7 7 -7 0 -10 -3 -7 -7z" />
    <path d="M1773 223 c4 -3 10 -3 14 0 3 4 0 7 -7 7 -7 0 -10 -3 -7 -7z" />
    <path d="M713 213 c4 -3 10 -3 14 0 3 4 0 7 -7 7 -7 0 -10 -3 -7 -7z" />
  </g>
  <g transform="translate(0.000000,251.000000) scale(0.100000,-0.100000)" fill="#545454" stroke="none" />
  <g transform="translate(0.000000,251.000000) scale(0.100000,-0.100000)" fill="#727272" stroke="none" />
  <g transform="translate(0.000000,251.000000) scale(0.100000,-0.100000)" fill="#919191" stroke="none" />
  <g transform="translate(0.000000,251.000000) scale(0.100000,-0.100000)" fill="#000000" stroke="none" />
  <g transform="translate(0.000000,251.000000) scale(0.100000,-0.100000)" fill="#000000" stroke="none" />
  <g transform="translate(0.000000,251.000000) scale(0.100000,-0.100000)" fill="#000000" stroke="none" />
  <g transform="translate(0.000000,251.000000) scale(0.100000,-0.100000)" fill="#000000" stroke="none" />
</svg>